<?xml version="1.0" encoding="UTF-8"?>
<svg width="32px" height="32px" viewBox="0 0 32 32" version="1.1" xmlns="http://www.w3.org/2000/svg">
    <title>Bitrix24 Icon</title>
    <g id="Page-1" stroke="none" stroke-width="1" fill="none" fill-rule="evenodd">
        <g id="Bitrix24">
            <rect id="Background" fill="#2FC7F7" x="0" y="0" width="32" height="32" rx="5"></rect>
            <path d="M16,25.6666667 C10.109,25.6666667 5.33333333,20.891 5.33333333,15 C5.33333333,9.109 10.109,4.33333333 16,4.33333333 C21.891,4.33333333 26.6666667,9.109 26.6666667,15 C26.6666667,20.891 21.891,25.6666667 16,25.6666667 Z M7.93333333,15 C7.93333333,19.354 11.646,23.0666667 16,23.0666667 C20.354,23.0666667 24.0666667,19.354 24.0666667,15 C24.0666667,10.646 20.354,6.93333333 16,6.93333333 C11.646,6.93333333 7.93333333,10.646 7.93333333,15 Z" id="Shape" fill="#FFFFFF" fill-rule="nonzero"></path>
            <path d="M16,19.6666667 C13.4226667,19.6666667 11.3333333,17.5773333 11.3333333,15 C11.3333333,12.4226667 13.4226667,10.3333333 16,10.3333333 C18.5773333,10.3333333 20.6666667,12.4226667 20.6666667,15 C20.6666667,17.5773333 18.5773333,19.6666667 16,19.6666667 Z" id="Path" fill="#FFFFFF"></path>
            <path d="M16,15 L22.6666667,7.33333333" id="Path-2" stroke="#FFFFFF" stroke-width="2"></path>
        </g>
    </g>
</svg> 